<svg width="29" height="51" viewBox="0 0 29 51" fill="none" xmlns="http://www.w3.org/2000/svg">
<path d="M14.5116 9.15468C13.8108 9.15468 13.1546 9.42655 12.6577 9.92343C12.1632 10.4203 11.889 11.0766 11.889 11.7773C11.889 12.4781 12.1632 13.1344 12.6577 13.6312C13.1546 14.1258 13.8108 14.4 14.5116 14.4C15.2124 14.4 15.8686 14.1258 16.3655 13.6312C16.86 13.1344 17.1343 12.4781 17.1343 11.7773C17.1343 11.0766 16.86 10.4203 16.3655 9.92343C16.1228 9.67887 15.834 9.48498 15.5157 9.35301C15.1974 9.22104 14.8561 9.15362 14.5116 9.15468ZM24.1749 14.6742L22.6421 13.3641C22.7147 12.9187 22.7522 12.4641 22.7522 12.0117C22.7522 11.5594 22.7147 11.1023 22.6421 10.6594L24.1749 9.34921C24.2907 9.25008 24.3736 9.11806 24.4125 8.97069C24.4514 8.82332 24.4446 8.66759 24.3929 8.52421L24.3718 8.46327C23.9499 7.28364 23.3178 6.1902 22.5061 5.23593L22.464 5.18671C22.3654 5.07081 22.234 4.9875 22.0872 4.94776C21.9403 4.90801 21.7849 4.91369 21.6413 4.96405L19.7382 5.64139C19.035 5.06483 18.2522 4.61014 17.4038 4.29374L17.0358 2.30389C17.0081 2.15399 16.9353 2.01609 16.8273 1.9085C16.7193 1.80091 16.5811 1.72873 16.4311 1.70155L16.3679 1.68983C15.1491 1.46952 13.8647 1.46952 12.646 1.68983L12.5827 1.70155C12.4327 1.72873 12.2945 1.80091 12.1865 1.9085C12.0785 2.01609 12.0058 2.15399 11.978 2.30389L11.6077 4.30311C10.7673 4.62204 9.98441 5.07563 9.28973 5.64608L7.37255 4.96405C7.22903 4.91329 7.07346 4.9074 6.92652 4.94717C6.77958 4.98695 6.64821 5.07049 6.54989 5.18671L6.5077 5.23593C5.69745 6.19122 5.06553 7.28438 4.64208 8.46327L4.62098 8.52421C4.51551 8.81718 4.60223 9.1453 4.83895 9.34921L6.39051 10.6734C6.31786 11.1141 6.2827 11.5641 6.2827 12.0094C6.2827 12.4594 6.31786 12.9094 6.39051 13.3453L4.84364 14.6695C4.72785 14.7686 4.64497 14.9007 4.60604 15.048C4.5671 15.1954 4.57395 15.3511 4.62567 15.4945L4.64676 15.5555C5.07098 16.7344 5.69676 17.8242 6.51239 18.7828L6.55458 18.832C6.65314 18.9479 6.78451 19.0312 6.93136 19.071C7.07822 19.1107 7.23367 19.105 7.37723 19.0547L9.29442 18.3726C9.99286 18.9469 10.771 19.4016 11.6124 19.7156L11.9827 21.7148C12.0105 21.8647 12.0832 22.0026 12.1912 22.1102C12.2992 22.2178 12.4374 22.29 12.5874 22.3172L12.6507 22.3289C13.8814 22.5504 15.1418 22.5504 16.3725 22.3289L16.4358 22.3172C16.5858 22.29 16.724 22.2178 16.832 22.1102C16.94 22.0026 17.0128 21.8647 17.0405 21.7148L17.4085 19.725C18.2569 19.4062 19.0397 18.9539 19.7429 18.3773L21.646 19.0547C21.7895 19.1054 21.9451 19.1113 22.092 19.0716C22.239 19.0318 22.3703 18.9482 22.4686 18.832L22.5108 18.7828C23.3265 17.8195 23.9522 16.7344 24.3765 15.5555L24.3975 15.4945C24.4983 15.2039 24.4116 14.8781 24.1749 14.6742ZM14.5116 15.8976C12.2358 15.8976 10.3913 14.0531 10.3913 11.7773C10.3913 9.50155 12.2358 7.65702 14.5116 7.65702C16.7874 7.65702 18.6319 9.50155 18.6319 11.7773C18.6319 14.0531 16.7874 15.8976 14.5116 15.8976Z" fill="#7F898B"/>
<path d="M0.948 48V39.54H2.304L5.412 46.536H5.04L8.148 39.54H9.492V48H8.088V41.724H8.52L5.676 48H4.752L1.908 41.724H2.352V48H0.948ZM13.9934 48.12C13.3694 48.12 12.8294 47.992 12.3734 47.736C11.9174 47.48 11.5614 47.116 11.3054 46.644C11.0574 46.172 10.9334 45.612 10.9334 44.964C10.9334 44.316 11.0574 43.76 11.3054 43.296C11.5614 42.824 11.9174 42.46 12.3734 42.204C12.8294 41.948 13.3694 41.82 13.9934 41.82C14.6174 41.82 15.1574 41.948 15.6134 42.204C16.0774 42.46 16.4334 42.824 16.6814 43.296C16.9374 43.76 17.0654 44.316 17.0654 44.964C17.0654 45.612 16.9374 46.172 16.6814 46.644C16.4334 47.116 16.0774 47.48 15.6134 47.736C15.1574 47.992 14.6174 48.12 13.9934 48.12ZM13.9934 46.968C14.4654 46.968 14.8414 46.804 15.1214 46.476C15.4014 46.14 15.5414 45.636 15.5414 44.964C15.5414 44.292 15.4014 43.792 15.1214 43.464C14.8414 43.136 14.4654 42.972 13.9934 42.972C13.5214 42.972 13.1454 43.136 12.8654 43.464C12.5854 43.792 12.4454 44.292 12.4454 44.964C12.4454 45.636 12.5854 46.14 12.8654 46.476C13.1454 46.804 13.5214 46.968 13.9934 46.968ZM18.347 48V43.488C18.347 43.232 18.339 42.972 18.323 42.708C18.315 42.444 18.295 42.188 18.263 41.94H19.715L19.883 43.596H19.643C19.723 43.196 19.855 42.864 20.039 42.6C20.231 42.336 20.463 42.14 20.735 42.012C21.007 41.884 21.303 41.82 21.623 41.82C21.767 41.82 21.883 41.828 21.971 41.844C22.059 41.852 22.147 41.872 22.235 41.904L22.223 43.224C22.071 43.16 21.939 43.12 21.827 43.104C21.723 43.088 21.591 43.08 21.431 43.08C21.087 43.08 20.795 43.152 20.555 43.296C20.323 43.44 20.147 43.64 20.027 43.896C19.915 44.152 19.859 44.444 19.859 44.772V48H18.347ZM25.9042 48.12C24.8882 48.12 24.0922 47.84 23.5162 47.28C22.9402 46.72 22.6522 45.952 22.6522 44.976C22.6522 44.344 22.7762 43.792 23.0242 43.32C23.2722 42.848 23.6162 42.48 24.0562 42.216C24.5042 41.952 25.0242 41.82 25.6162 41.82C26.2002 41.82 26.6882 41.944 27.0802 42.192C27.4722 42.44 27.7682 42.788 27.9682 43.236C28.1762 43.684 28.2802 44.208 28.2802 44.808V45.204H23.8642V44.412H27.2122L27.0082 44.58C27.0082 44.02 26.8882 43.592 26.6482 43.296C26.4162 43 26.0762 42.852 25.6282 42.852C25.1322 42.852 24.7482 43.028 24.4762 43.38C24.2122 43.732 24.0802 44.224 24.0802 44.856V45.012C24.0802 45.668 24.2402 46.16 24.5602 46.488C24.8882 46.808 25.3482 46.968 25.9402 46.968C26.2842 46.968 26.6042 46.924 26.9002 46.836C27.2042 46.74 27.4922 46.588 27.7642 46.38L28.2082 47.388C27.9202 47.62 27.5762 47.8 27.1762 47.928C26.7762 48.056 26.3522 48.12 25.9042 48.12Z" fill="#7F898B"/>
</svg>
