<svg width="56" height="51" viewBox="0 0 56 51" fill="none" xmlns="http://www.w3.org/2000/svg">
<path d="M38 8.16198V8.23498C38 9.09498 38 9.52598 37.793 9.87798C37.586 10.23 37.209 10.439 36.457 10.858L35.664 11.298C36.21 9.44998 36.393 7.46398 36.46 5.76598L36.47 5.54498L36.472 5.49298C37.123 5.71898 37.489 5.88798 37.717 6.20398C38 6.59698 38 7.11898 38 8.16198ZM18 8.16198V8.23498C18 9.09498 18 9.52598 18.207 9.87798C18.414 10.23 18.791 10.439 19.543 10.858L20.337 11.298C19.79 9.44998 19.607 7.46398 19.54 5.76598L19.53 5.54498L19.529 5.49298C18.877 5.71898 18.511 5.88798 18.283 6.20398C18 6.59698 18 7.11998 18 8.16198Z" fill="#7F898B"/>
<path fill-rule="evenodd" clip-rule="evenodd" d="M28 1.99999C29.784 1.99999 31.253 2.15699 32.377 2.34699C33.516 2.53899 34.085 2.63499 34.561 3.22099C35.037 3.80699 35.011 4.43999 34.961 5.70599C34.789 10.055 33.851 15.486 28.75 15.966V19.5H30.18C30.4111 19.5001 30.635 19.5803 30.8136 19.7269C30.9923 19.8735 31.1147 20.0774 31.16 20.304L31.35 21.25H34C34.1989 21.25 34.3897 21.329 34.5303 21.4697C34.671 21.6103 34.75 21.8011 34.75 22C34.75 22.1989 34.671 22.3897 34.5303 22.5303C34.3897 22.671 34.1989 22.75 34 22.75H22C21.8011 22.75 21.6103 22.671 21.4696 22.5303C21.329 22.3897 21.25 22.1989 21.25 22C21.25 21.8011 21.329 21.6103 21.4696 21.4697C21.6103 21.329 21.8011 21.25 22 21.25H24.65L24.84 20.304C24.8853 20.0774 25.0076 19.8735 25.1863 19.7269C25.365 19.5803 25.5889 19.5001 25.82 19.5H27.25V15.966C22.15 15.486 21.212 10.054 21.04 5.70599C20.989 4.43999 20.964 3.80599 21.44 3.22099C21.915 2.63499 22.484 2.53899 23.623 2.34699C25.0698 2.10987 26.5339 1.9938 28 1.99999ZM28.952 6.19899L28.854 6.02299C28.474 5.33999 28.284 4.99999 28 4.99999C27.716 4.99999 27.526 5.33999 27.146 6.02299L27.048 6.19899C26.94 6.39299 26.886 6.48899 26.802 6.55299C26.717 6.61699 26.612 6.64099 26.402 6.68799L26.212 6.73199C25.474 6.89899 25.105 6.98199 25.017 7.26399C24.929 7.54699 25.181 7.84099 25.684 8.42899L25.814 8.58099C25.957 8.74799 26.029 8.83099 26.061 8.93499C26.093 9.03899 26.082 9.14999 26.061 9.37299L26.041 9.57599C25.965 10.361 25.927 10.754 26.156 10.928C26.386 11.102 26.732 10.943 27.423 10.625L27.601 10.543C27.798 10.453 27.896 10.408 28 10.408C28.104 10.408 28.202 10.453 28.399 10.543L28.577 10.625C29.268 10.944 29.614 11.102 29.844 10.928C30.074 10.754 30.035 10.361 29.959 9.57599L29.939 9.37299C29.918 9.14999 29.907 9.03899 29.939 8.93499C29.971 8.83199 30.043 8.74799 30.186 8.58099L30.316 8.42899C30.819 7.84099 31.071 7.54699 30.983 7.26399C30.895 6.98199 30.526 6.89899 29.788 6.73199L29.598 6.68799C29.388 6.64099 29.283 6.61799 29.198 6.55299C29.114 6.48899 29.06 6.39299 28.952 6.19899Z" fill="#7F898B"/>
<path d="M0.948 48V39.54H2.304L5.412 46.536H5.04L8.148 39.54H9.492V48H8.088V41.724H8.52L5.676 48H4.752L1.908 41.724H2.352V48H0.948ZM11.1374 50.724L10.7894 49.536C11.1654 49.456 11.4814 49.364 11.7374 49.26C11.9934 49.156 12.2054 49.02 12.3734 48.852C12.5414 48.684 12.6814 48.468 12.7934 48.204L13.0934 47.496L13.0574 48.084L10.4174 41.94H12.0134L13.9094 46.668H13.5614L15.4694 41.94H16.9814L14.2214 48.336C14.0374 48.768 13.8374 49.124 13.6214 49.404C13.4054 49.692 13.1734 49.92 12.9254 50.088C12.6774 50.264 12.4054 50.4 12.1094 50.496C11.8134 50.592 11.4894 50.668 11.1374 50.724ZM21.198 48V39.54H22.554L25.662 46.536H25.29L28.398 39.54H29.742V48H28.338V41.724H28.77L25.926 48H25.002L22.158 41.724H22.602V48H21.198ZM33.8474 48.12C33.3194 48.12 32.8554 47.996 32.4554 47.748C32.0554 47.492 31.7434 47.128 31.5194 46.656C31.2954 46.184 31.1834 45.62 31.1834 44.964C31.1834 44.308 31.2954 43.748 31.5194 43.284C31.7434 42.812 32.0554 42.452 32.4554 42.204C32.8554 41.948 33.3194 41.82 33.8474 41.82C34.3594 41.82 34.8074 41.948 35.1914 42.204C35.5834 42.452 35.8434 42.788 35.9714 43.212H35.8394L35.9714 41.94H37.4114C37.3874 42.188 37.3634 42.44 37.3394 42.696C37.3234 42.952 37.3154 43.204 37.3154 43.452V48H35.8274L35.8154 46.752H35.9594C35.8314 47.168 35.5714 47.5 35.1794 47.748C34.7874 47.996 34.3434 48.12 33.8474 48.12ZM34.2674 46.968C34.7394 46.968 35.1194 46.804 35.4074 46.476C35.6954 46.14 35.8394 45.636 35.8394 44.964C35.8394 44.292 35.6954 43.792 35.4074 43.464C35.1194 43.136 34.7394 42.972 34.2674 42.972C33.7954 42.972 33.4154 43.136 33.1274 43.464C32.8394 43.792 32.6954 44.292 32.6954 44.964C32.6954 45.636 32.8354 46.14 33.1154 46.476C33.4034 46.804 33.7874 46.968 34.2674 46.968ZM41.5408 48.12C40.8208 48.12 40.2768 47.932 39.9088 47.556C39.5408 47.18 39.3568 46.616 39.3568 45.864V43.068H38.1928V41.94H39.3568V40.392L40.8568 40.008V41.94H42.4768V43.068H40.8568V45.768C40.8568 46.184 40.9368 46.476 41.0968 46.644C41.2568 46.812 41.4768 46.896 41.7568 46.896C41.9088 46.896 42.0368 46.884 42.1408 46.86C42.2528 46.836 42.3608 46.804 42.4648 46.764V47.952C42.3288 48.008 42.1768 48.048 42.0088 48.072C41.8488 48.104 41.6928 48.12 41.5408 48.12ZM46.2211 48.12C45.5971 48.12 45.0491 47.992 44.5771 47.736C44.1131 47.48 43.7531 47.116 43.4971 46.644C43.2411 46.164 43.1131 45.596 43.1131 44.94C43.1131 44.284 43.2411 43.724 43.4971 43.26C43.7611 42.796 44.1251 42.44 44.5891 42.192C45.0531 41.944 45.5971 41.82 46.2211 41.82C46.6211 41.82 47.0091 41.884 47.3851 42.012C47.7691 42.132 48.0811 42.308 48.3211 42.54L47.8651 43.584C47.6491 43.384 47.4051 43.236 47.1331 43.14C46.8691 43.036 46.6091 42.984 46.3531 42.984C45.8171 42.984 45.3971 43.152 45.0931 43.488C44.7971 43.824 44.6491 44.312 44.6491 44.952C44.6491 45.592 44.7971 46.084 45.0931 46.428C45.3971 46.772 45.8171 46.944 46.3531 46.944C46.6011 46.944 46.8571 46.896 47.1211 46.8C47.3931 46.704 47.6411 46.556 47.8651 46.356L48.3211 47.388C48.0731 47.62 47.7571 47.8 47.3731 47.928C46.9971 48.056 46.6131 48.12 46.2211 48.12ZM49.484 48V39.168H50.984V43.152H50.816C51 42.72 51.284 42.392 51.668 42.168C52.052 41.936 52.492 41.82 52.988 41.82C53.708 41.82 54.244 42.024 54.596 42.432C54.948 42.832 55.124 43.444 55.124 44.268V48H53.624V44.34C53.624 43.868 53.532 43.528 53.348 43.32C53.172 43.104 52.888 42.996 52.496 42.996C52.04 42.996 51.672 43.14 51.392 43.428C51.12 43.708 50.984 44.084 50.984 44.556V48H49.484Z" fill="#7F898B"/>
</svg>
