<svg width="35" height="51" viewBox="0 0 35 51" fill="none" xmlns="http://www.w3.org/2000/svg">
<g clip-path="url(#clip0_1_234)">
<path d="M25 8.19094V2.25H21.25V4.98984L17.5 1.5L5.5 12.75H8.5V22.5H15.25V15H19.75V22.5H26.5V12.75H29.5L25 8.19094Z" fill="#A50E0E"/>
</g>
<path d="M0.864 48V39.54H2.736V42.936H6.612V39.54H8.496V48H6.612V44.484H2.736V48H0.864ZM12.9756 48.132C12.3276 48.132 11.7636 48.004 11.2836 47.748C10.8116 47.484 10.4436 47.116 10.1796 46.644C9.92356 46.172 9.79556 45.608 9.79556 44.952C9.79556 44.304 9.92356 43.744 10.1796 43.272C10.4436 42.8 10.8116 42.436 11.2836 42.18C11.7636 41.924 12.3276 41.796 12.9756 41.796C13.6236 41.796 14.1876 41.924 14.6676 42.18C15.1476 42.436 15.5156 42.8 15.7716 43.272C16.0356 43.744 16.1676 44.304 16.1676 44.952C16.1676 45.608 16.0356 46.172 15.7716 46.644C15.5156 47.116 15.1476 47.484 14.6676 47.748C14.1876 48.004 13.6236 48.132 12.9756 48.132ZM12.9756 46.764C13.3916 46.764 13.7196 46.616 13.9596 46.32C14.2076 46.024 14.3316 45.568 14.3316 44.952C14.3316 44.336 14.2076 43.884 13.9596 43.596C13.7196 43.308 13.3916 43.164 12.9756 43.164C12.5596 43.164 12.2276 43.308 11.9796 43.596C11.7396 43.884 11.6196 44.336 11.6196 44.952C11.6196 45.568 11.7396 46.024 11.9796 46.32C12.2276 46.616 12.5596 46.764 12.9756 46.764ZM17.3378 48V43.5C17.3378 43.244 17.3298 42.984 17.3138 42.72C17.2978 42.448 17.2738 42.18 17.2418 41.916H18.9818L19.1138 43.044H18.9698C19.1458 42.66 19.4058 42.356 19.7498 42.132C20.0938 41.908 20.5018 41.796 20.9738 41.796C21.4378 41.796 21.8258 41.908 22.1378 42.132C22.4578 42.348 22.6858 42.688 22.8218 43.152H22.6298C22.8058 42.736 23.0858 42.408 23.4698 42.168C23.8538 41.92 24.2898 41.796 24.7778 41.796C25.4658 41.796 25.9778 42 26.3138 42.408C26.6498 42.816 26.8178 43.456 26.8178 44.328V48H25.0058V44.388C25.0058 43.964 24.9378 43.66 24.8018 43.476C24.6658 43.292 24.4458 43.2 24.1418 43.2C23.7818 43.2 23.4978 43.328 23.2898 43.584C23.0818 43.84 22.9778 44.192 22.9778 44.64V48H21.1658V44.388C21.1658 43.964 21.0978 43.66 20.9618 43.476C20.8258 43.292 20.6058 43.2 20.3018 43.2C19.9418 43.2 19.6578 43.328 19.4498 43.584C19.2498 43.84 19.1498 44.192 19.1498 44.64V48H17.3378ZM31.3313 48.132C30.2753 48.132 29.4513 47.848 28.8593 47.28C28.2673 46.712 27.9713 45.94 27.9713 44.964C27.9713 44.332 28.0953 43.78 28.3433 43.308C28.5993 42.836 28.9513 42.468 29.3993 42.204C29.8553 41.932 30.3873 41.796 30.9953 41.796C31.5953 41.796 32.0953 41.924 32.4953 42.18C32.9033 42.436 33.2073 42.796 33.4073 43.26C33.6153 43.716 33.7193 44.248 33.7193 44.856V45.276H29.4593V44.376H32.3993L32.1953 44.544C32.1953 44.04 32.0913 43.66 31.8833 43.404C31.6833 43.14 31.3913 43.008 31.0073 43.008C30.5833 43.008 30.2553 43.164 30.0233 43.476C29.7993 43.788 29.6873 44.236 29.6873 44.82V45.012C29.6873 45.604 29.8313 46.044 30.1193 46.332C30.4153 46.62 30.8393 46.764 31.3913 46.764C31.7193 46.764 32.0273 46.724 32.3153 46.644C32.6113 46.556 32.8913 46.42 33.1553 46.236L33.6593 47.436C33.3553 47.66 33.0033 47.832 32.6033 47.952C32.2113 48.072 31.7873 48.132 31.3313 48.132Z" fill="#A50E0E"/>
<defs>
<clipPath id="clip0_1_234">
<rect width="24" height="24" fill="white" transform="translate(5.5)"/>
</clipPath>
</defs>
</svg>
