<svg width="43" height="51" viewBox="0 0 43 51" fill="none" xmlns="http://www.w3.org/2000/svg">
<path d="M26.5 2H22.5V6.059C23.9313 6.21633 25.3035 6.71684 26.5 7.518V2ZM20.5 2H16.5V7.518C17.6965 6.71684 19.0687 6.21633 20.5 6.059V2ZM21.5 22C23.3565 22 25.137 21.2625 26.4497 19.9497C27.7625 18.637 28.5 16.8565 28.5 15C28.5 13.1435 27.7625 11.363 26.4497 10.0503C25.137 8.7375 23.3565 8 21.5 8C19.6435 8 17.863 8.7375 16.5503 10.0503C15.2375 11.363 14.5 13.1435 14.5 15C14.5 16.8565 15.2375 18.637 16.5503 19.9497C17.863 21.2625 19.6435 22 21.5 22ZM20.275 13.481L21.5 11L22.725 13.481L25.463 13.878L23.482 15.81L23.95 18.537L21.5 17.25L19.051 18.537L19.519 15.81L17.538 13.878L20.275 13.481Z" fill="#7F898B"/>
<path d="M3.288 48L0.3 39.54H1.908L4.212 46.476H3.732L6.216 39.54H7.368L9.672 46.476H9.228L11.64 39.54H13.152L10.14 48H8.856L6.624 41.496H6.888L4.572 48H3.288ZM14.2691 48V41.94H15.7691V48H14.2691ZM14.1851 40.8V39.336H15.8531V40.8H14.1851ZM17.398 48V43.452C17.398 43.204 17.39 42.952 17.374 42.696C17.358 42.44 17.334 42.188 17.302 41.94H18.754L18.874 43.14H18.73C18.922 42.716 19.206 42.392 19.582 42.168C19.958 41.936 20.394 41.82 20.89 41.82C21.602 41.82 22.138 42.02 22.498 42.42C22.858 42.82 23.038 43.444 23.038 44.292V48H21.538V44.364C21.538 43.876 21.442 43.528 21.25 43.32C21.066 43.104 20.786 42.996 20.41 42.996C19.946 42.996 19.578 43.14 19.306 43.428C19.034 43.716 18.898 44.1 18.898 44.58V48H17.398ZM24.6285 48V43.452C24.6285 43.204 24.6205 42.952 24.6045 42.696C24.5885 42.44 24.5645 42.188 24.5325 41.94H25.9845L26.1045 43.14H25.9605C26.1525 42.716 26.4365 42.392 26.8125 42.168C27.1885 41.936 27.6245 41.82 28.1205 41.82C28.8325 41.82 29.3685 42.02 29.7285 42.42C30.0885 42.82 30.2685 43.444 30.2685 44.292V48H28.7685V44.364C28.7685 43.876 28.6725 43.528 28.4805 43.32C28.2965 43.104 28.0165 42.996 27.6405 42.996C27.1765 42.996 26.8085 43.14 26.5365 43.428C26.2645 43.716 26.1285 44.1 26.1285 44.58V48H24.6285ZM34.787 48.12C33.771 48.12 32.975 47.84 32.399 47.28C31.823 46.72 31.535 45.952 31.535 44.976C31.535 44.344 31.659 43.792 31.907 43.32C32.155 42.848 32.499 42.48 32.939 42.216C33.387 41.952 33.907 41.82 34.499 41.82C35.083 41.82 35.571 41.944 35.963 42.192C36.355 42.44 36.651 42.788 36.851 43.236C37.059 43.684 37.163 44.208 37.163 44.808V45.204H32.747V44.412H36.095L35.891 44.58C35.891 44.02 35.771 43.592 35.531 43.296C35.299 43 34.959 42.852 34.511 42.852C34.015 42.852 33.631 43.028 33.359 43.38C33.095 43.732 32.963 44.224 32.963 44.856V45.012C32.963 45.668 33.123 46.16 33.443 46.488C33.771 46.808 34.231 46.968 34.823 46.968C35.167 46.968 35.487 46.924 35.783 46.836C36.087 46.74 36.375 46.588 36.647 46.38L37.091 47.388C36.803 47.62 36.459 47.8 36.059 47.928C35.659 48.056 35.235 48.12 34.787 48.12ZM38.4212 48V43.488C38.4212 43.232 38.4132 42.972 38.3972 42.708C38.3892 42.444 38.3692 42.188 38.3372 41.94H39.7892L39.9572 43.596H39.7172C39.7972 43.196 39.9292 42.864 40.1132 42.6C40.3052 42.336 40.5372 42.14 40.8092 42.012C41.0812 41.884 41.3772 41.82 41.6972 41.82C41.8412 41.82 41.9572 41.828 42.0452 41.844C42.1332 41.852 42.2212 41.872 42.3092 41.904L42.2972 43.224C42.1452 43.16 42.0132 43.12 41.9012 43.104C41.7972 43.088 41.6652 43.08 41.5052 43.08C41.1612 43.08 40.8692 43.152 40.6292 43.296C40.3972 43.44 40.2212 43.64 40.1012 43.896C39.9892 44.152 39.9332 44.444 39.9332 44.772V48H38.4212Z" fill="#7F898B"/>
</svg>
